# xmcd
#
# Track frame offsets:
#	150
#	12752
#	29892
#	53870
#	72807
#	88375
#	104237
#	121107
#	138887
#	156645
#	177215
#	190370
#	205400
#
# Disc length: 3099 seconds
#
# Revision: 0
# Processed by: cddbd v1.4PL0 Copyright (c) Steve Scherf et al.
# Submitted via: dBpowerAMP V4.0
#
DISCID=c40c190d
DTITLE=J.Leino and Blues Guys - Don´t hesitate
DYEAR=1997
DGENRE=Blues
TTITLE0=You don´t know
TTITLE1=It´s lying time again
TTITLE2=In the dark
TTITLE3=Heart fixing business
TTITLE4=Don´t bother me
TTITLE5=Howlin´ for my darlin´
TTITLE6=I just got to know
TTITLE7=Sittin´ on a boat deck
TTITLE8=Leave my woman alone
TTITLE9=Dead or alive
TTITLE10=You sure drive a hard bargain
TTITLE11=Born under bad sign
TTITLE12=Someone else is steppin´in
EXTD=
EXTT0=
EXTT1=
EXTT2=
EXTT3=
EXTT4=
EXTT5=
EXTT6=
EXTT7=
EXTT8=
EXTT9=
EXTT10=
EXTT11=
EXTT12=
PLAYORDER=
